<?xml version="1.0" encoding="UTF-8"?>
<!-- Generated by Pixelmator Pro 3.5.6 -->
<svg width="48" height="48" viewBox="0 0 48 48" xmlns="http://www.w3.org/2000/svg">
    <g id="Group">
        <path id="Path" fill="#1fadb5" stroke="none" d="M 65.446404 27.100901 L 62.580002 27.100901 L 62.580002 40.131802 C 62.580002 41.847198 62.2033 43.1105 61.450199 43.921902 C 60.6968 44.733601 59.713902 45.1394 58.500999 45.1394 C 57.196602 45.1394 56.185902 44.715199 55.469299 43.866699 C 54.7528 43.018299 54.394501 41.773201 54.394501 40.131802 L 54.394501 8.924179 C 54.394501 7.153549 54.789398 5.87167 55.579601 5.078571 C 56.369499 4.285469 57.646702 3.888939 59.410599 3.888939 L 72.722702 3.888939 C 74.560204 3.888939 76.130997 3.971931 77.435699 4.13792 C 78.740097 4.285469 79.9161 4.599041 80.963402 5.078571 C 82.231201 5.613472 83.352303 6.378891 84.325897 7.374878 C 85.299797 8.370869 86.034698 9.532852 86.5308 10.860802 C 87.045502 12.170399 87.302597 13.562901 87.302597 15.038399 C 87.302597 18.063299 86.448303 20.4795 84.739403 22.287001 C 83.049004 24.0945 80.476501 25.3764 77.022202 26.132601 C 78.473701 26.907301 79.861099 28.0508 81.183899 29.563299 C 82.507004 31.0755 83.682999 32.689602 84.711899 34.404999 C 85.759201 36.101601 86.567596 37.641701 87.137299 39.025002 C 87.725197 40.3899 88.019096 41.330502 88.019096 41.847198 C 88.019096 42.382099 87.844803 42.916698 87.495598 43.451599 C 87.164803 43.9683 86.705399 44.374001 86.1175 44.669102 C 85.529404 44.982601 84.849701 45.1394 84.077904 45.1394 C 83.159203 45.1394 82.387398 44.917999 81.762703 44.4753 C 81.138 44.051102 80.5961 43.507099 80.136597 42.842999 C 79.695602 42.178902 79.089302 41.201599 78.317497 39.9105 L 75.037804 34.432598 C 73.861801 32.422199 72.805397 30.891199 71.868401 29.8398 C 70.949501 28.788601 70.012398 28.0693 69.0569 27.6819 C 68.101402 27.2946 66.897903 27.100901 65.446404 27.100901 Z M 70.132004 10.058502 L 62.580002 10.058502 L 62.580002 21.208 L 69.911499 21.208 C 71.877403 21.208 73.530998 21.042 74.872597 20.709999 C 76.213799 20.3596 77.233597 19.778601 77.931702 18.966999 C 78.6483 18.1371 79.0065 17.002701 79.0065 15.564102 C 79.0065 14.438999 78.722 13.452202 78.152199 12.603798 C 77.582497 11.7369 76.792603 11.0914 75.782097 10.667198 C 74.826599 10.261398 72.943199 10.058502 70.132004 10.058502 Z M 111.764 44.447701 L 99.416397 44.447701 C 97.634102 44.447701 96.357002 44.051102 95.585403 43.258099 C 94.8321 42.4464 94.455399 41.1646 94.455399 39.412498 L 94.455399 8.924179 C 94.455399 7.13512 94.841103 5.853241 95.6129 5.078571 C 96.402901 4.285469 97.6707 3.888939 99.416397 3.888939 L 112.508003 3.888939 C 114.436996 3.888939 116.109001 4.008801 117.524002 4.2486 C 118.939003 4.488361 120.207001 4.949459 121.328003 5.631908 C 122.282997 6.203682 123.127998 6.93222 123.862999 7.817539 C 124.598 8.68441 125.158997 9.652748 125.544998 10.7225 C 125.93 11.7738 126.123001 12.889702 126.123001 14.070099 C 126.123001 18.1278 124.101997 21.097401 120.059998 22.978701 C 125.370003 24.675501 128.024994 27.976999 128.024994 32.883099 C 128.024994 35.151798 127.445999 37.199299 126.289001 39.025002 C 125.130997 40.8326 123.569 42.1698 121.602997 43.0368 C 120.372002 43.5532 118.957001 43.921902 117.359001 44.143299 C 115.760002 44.3461 113.894997 44.447701 111.764 44.447701 Z M 111.156998 26.437 L 102.640999 26.437 L 102.640999 38.278198 L 111.432999 38.278198 C 116.963997 38.278198 119.728996 36.276798 119.728996 32.274502 C 119.728996 30.2274 119.012001 28.7425 117.579002 27.820299 C 116.146004 26.8981 114.004997 26.437 111.156998 26.437 Z M 102.640999 10.058502 L 102.640999 20.544001 L 110.138 20.544001 C 112.177002 20.544001 113.748001 20.350401 114.850998 19.962999 C 115.972 19.575701 116.825996 18.837999 117.414001 17.7498 C 117.873001 16.9751 118.102997 16.1082 118.102997 15.149101 C 118.102997 13.101799 117.376999 11.746201 115.925003 11.082199 C 114.473999 10.3997 112.260002 10.058502 109.282997 10.058502 L 102.640999 10.058502 Z M 143.584 40.131802 L 143.584 27.266899 L 133.716995 11.912201 C 132.852997 10.528801 132.238007 9.44986 131.869995 8.675201 C 131.520996 7.900528 131.347 7.227329 131.347 6.65556 C 131.347 5.714901 131.705002 4.903358 132.421997 4.220909 C 133.156998 3.53849 134.057007 3.197269 135.121994 3.197269 C 136.242996 3.197269 137.089005 3.52005 137.658005 4.1656 C 138.246002 4.79269 139.119003 6.056129 140.276993 7.955872 L 147.828003 20.267401 L 155.462997 7.955872 C 155.921997 7.199669 156.307999 6.563339 156.619995 6.046909 C 156.932999 5.530479 157.272995 5.050919 157.639999 4.608261 C 158.026001 4.147141 158.449005 3.796719 158.908005 3.556931 C 159.367004 3.317162 159.927994 3.197269 160.589005 3.197269 C 161.617996 3.197269 162.473007 3.53849 163.151993 4.220909 C 163.850998 4.88493 164.199997 5.659561 164.199997 6.54491 C 164.199997 7.264229 164.024994 7.983528 163.675995 8.70285 C 163.326996 9.42218 162.729996 10.418198 161.884995 11.6908 L 151.770004 27.266899 L 151.770004 40.131802 C 151.770004 41.8102 151.384003 43.0644 150.612 43.894299 C 149.839996 44.7243 148.856995 45.1394 147.662994 45.1394 C 146.449997 45.1394 145.466995 44.733601 144.714005 43.921902 C 143.960007 43.091999 143.584 41.828701 143.584 40.131802 Z"/>
    </g>
    <g id="g1">
        <path id="path1" fill="#142b40" stroke="none" d="M 44.432598 0.277344 L 2.92464 0.277344 C 1.30941 0.277344 0 1.59174 0 3.21312 L 0 45.0509 C 0 46.672298 1.30941 47.986698 2.92464 47.986698 L 44.432598 47.986698 C 46.047798 47.986698 47.357201 46.672298 47.357201 45.0509 L 47.357201 3.21312 C 47.357201 1.59174 46.047798 0.277344 44.432598 0.277344 Z"/>
    </g>
    <g id="g2">
        <path id="path2" fill="#eac74b" stroke="none" d="M 3.75781 27.372999 C 3.75781 25.7516 5.0741 24.415199 6.67198 24.652399 C 8.2853 24.891899 9.86689 25.329901 11.3804 25.9592 C 13.7971 26.9639 15.993 28.4366 17.8426 30.2932 C 19.6922 32.149799 21.159401 34.354 22.1605 36.779499 C 22.787399 38.298801 23.2237 39.8862 23.462299 41.505501 C 23.6987 43.109402 22.3673 44.430698 20.752001 44.430698 L 6.68245 44.430698 C 5.0672 44.430698 3.75781 43.116402 3.75781 41.494999 L 3.75781 27.372999 Z"/>
    </g>
    <g id="g3">
        <path id="path3" fill="#1fadb5" stroke="none" d="M 43.610699 27.372999 C 43.610699 25.7516 42.2943 24.415199 40.696602 24.652399 C 39.083401 24.891899 37.501701 25.329901 35.988201 25.9592 C 33.571301 26.9639 31.3755 28.4366 29.5259 30.2932 C 27.6763 32.149799 26.209101 34.354 25.208099 36.779499 C 24.5812 38.298801 24.1448 39.8862 23.9062 41.505501 C 23.669901 43.109299 25.0012 44.430698 26.616501 44.430698 L 40.6861 44.430698 C 42.3013 44.430698 43.610699 43.116402 43.610699 41.494999 L 43.610699 27.372999 Z"/>
    </g>
    <g id="g4">
        <path id="path4" fill="#1fadb5" stroke="none" d="M 13.7329 23.792299 C 19.233299 23.792299 23.692301 19.316601 23.692301 13.795601 C 23.692301 8.274521 19.233299 3.798828 13.7329 3.798828 C 8.23243 3.798828 3.77344 8.274521 3.77344 13.795601 C 3.77344 19.316601 8.23243 23.792299 13.7329 23.792299 Z"/>
    </g>
    <g id="g5">
        <path id="path5" fill="#eac74b" stroke="none" d="M 33.650902 23.792299 C 39.151299 23.792299 43.610298 19.316601 43.610298 13.795601 C 43.610298 8.274521 39.151299 3.798828 33.650902 3.798828 C 28.1504 3.798828 23.691401 8.274521 23.691401 13.795601 C 23.691401 19.316601 28.1504 23.792299 33.650902 23.792299 Z"/>
    </g>
</svg>
