<svg width="166" height="48" viewBox="0 0 166 48" fill="none" xmlns="http://www.w3.org/2000/svg">
<g filter="url(#filter0_ii_175_1103)">
<path d="M65.4464 27.1009H62.58V40.1318C62.58 41.8472 62.2033 43.1105 61.4502 43.9219C60.6968 44.7336 59.7139 45.1394 58.501 45.1394C57.1966 45.1394 56.1859 44.7152 55.4693 43.8667C54.7528 43.0183 54.3945 41.7732 54.3945 40.1318V8.92418C54.3945 7.15355 54.7894 5.87167 55.5796 5.07857C56.3695 4.28547 57.6467 3.88894 59.4106 3.88894H72.7227C74.5602 3.88894 76.131 3.97193 77.4357 4.13792C78.7401 4.28547 79.9161 4.59904 80.9634 5.07857C82.2312 5.61347 83.3523 6.37889 84.3259 7.37488C85.2998 8.37087 86.0347 9.53285 86.5308 10.8608C87.0455 12.1704 87.3026 13.5629 87.3026 15.0384C87.3026 18.0633 86.4483 20.4795 84.7394 22.287C83.049 24.0945 80.4765 25.3764 77.0222 26.1326C78.4737 26.9073 79.8611 28.0508 81.1839 29.5633C82.507 31.0755 83.683 32.6896 84.7119 34.405C85.7592 36.1016 86.5676 37.6417 87.1373 39.025C87.7252 40.3899 88.0191 41.3305 88.0191 41.8472C88.0191 42.3821 87.8448 42.9167 87.4956 43.4516C87.1648 43.9683 86.7054 44.374 86.1175 44.6691C85.5294 44.9826 84.8497 45.1394 84.0779 45.1394C83.1592 45.1394 82.3874 44.918 81.7627 44.4753C81.138 44.0511 80.5961 43.5071 80.1366 42.843C79.6956 42.1789 79.0893 41.2016 78.3175 39.9105L75.0378 34.4326C73.8618 32.4222 72.8054 30.8912 71.8684 29.8398C70.9495 28.7886 70.0124 28.0693 69.0569 27.6819C68.1014 27.2946 66.8979 27.1009 65.4464 27.1009ZM70.132 10.0585H62.58V21.208H69.9115C71.8774 21.208 73.531 21.042 74.8726 20.71C76.2138 20.3596 77.2336 19.7786 77.9317 18.967C78.6483 18.1371 79.0065 17.0027 79.0065 15.5641C79.0065 14.439 78.722 13.4522 78.1522 12.6038C77.5825 11.7369 76.7926 11.0914 75.7821 10.6672C74.8266 10.2614 72.9432 10.0585 70.132 10.0585ZM111.764 44.4477H99.4164C97.6341 44.4477 96.357 44.0511 95.5854 43.2581C94.8321 42.4464 94.4554 41.1646 94.4554 39.4125V8.92418C94.4554 7.13512 94.8411 5.85324 95.6129 5.07857C96.4029 4.28547 97.6707 3.88894 99.4164 3.88894H112.508C114.437 3.88894 116.109 4.0088 117.524 4.2486C118.939 4.48836 120.207 4.94946 121.328 5.63191C122.283 6.20368 123.128 6.93222 123.863 7.81754C124.598 8.68441 125.159 9.65275 125.545 10.7225C125.93 11.7738 126.123 12.8897 126.123 14.0701C126.123 18.1278 124.102 21.0974 120.06 22.9787C125.37 24.6755 128.025 27.977 128.025 32.8831C128.025 35.1518 127.446 37.1993 126.289 39.025C125.131 40.8326 123.569 42.1698 121.603 43.0368C120.372 43.5532 118.957 43.9219 117.359 44.1433C115.76 44.3461 113.895 44.4477 111.764 44.4477ZM111.157 26.437H102.641V38.2782H111.433C116.964 38.2782 119.729 36.2768 119.729 32.2745C119.729 30.2274 119.012 28.7425 117.579 27.8203C116.146 26.8981 114.005 26.437 111.157 26.437ZM102.641 10.0585V20.544H110.138C112.177 20.544 113.748 20.3504 114.851 19.963C115.972 19.5757 116.826 18.838 117.414 17.7498C117.873 16.9751 118.103 16.1082 118.103 15.1491C118.103 13.1018 117.377 11.7462 115.925 11.0822C114.474 10.3997 112.26 10.0585 109.283 10.0585H102.641ZM143.584 40.1318V27.2669L133.717 11.9122C132.853 10.5288 132.238 9.44986 131.87 8.6752C131.521 7.90053 131.347 7.22733 131.347 6.65556C131.347 5.7149 131.705 4.90336 132.422 4.22091C133.157 3.53849 134.057 3.19727 135.122 3.19727C136.243 3.19727 137.089 3.52005 137.658 4.1656C138.246 4.79269 139.119 6.05613 140.277 7.95587L147.828 20.2674L155.463 7.95587C155.922 7.19967 156.308 6.56334 156.62 6.04691C156.933 5.53048 157.273 5.05092 157.64 4.60826C158.026 4.14714 158.449 3.79672 158.908 3.55693C159.367 3.31716 159.928 3.19727 160.589 3.19727C161.618 3.19727 162.473 3.53849 163.152 4.22091C163.851 4.88493 164.2 5.65956 164.2 6.54491C164.2 7.26423 164.025 7.98353 163.676 8.70285C163.327 9.42218 162.73 10.4182 161.885 11.6908L151.77 27.2669V40.1318C151.77 41.8102 151.384 43.0644 150.612 43.8943C149.84 44.7243 148.857 45.1394 147.663 45.1394C146.45 45.1394 145.467 44.7336 144.714 43.9219C143.96 43.092 143.584 41.8287 143.584 40.1318Z" fill="#1FADB5"/>
</g>
<g filter="url(#filter1_ii_175_1103)">
<path d="M44.4326 0.277344H2.92464C1.30941 0.277344 0 1.59174 0 3.21312V45.0509C0 46.6723 1.30941 47.9867 2.92464 47.9867H44.4326C46.0478 47.9867 47.3572 46.6723 47.3572 45.0509V3.21312C47.3572 1.59174 46.0478 0.277344 44.4326 0.277344Z" fill="#142B40"/>
</g>
<g filter="url(#filter2_ii_175_1103)">
<path d="M3.75781 27.373C3.75781 25.7516 5.0741 24.4152 6.67198 24.6524C8.2853 24.8919 9.86689 25.3299 11.3804 25.9592C13.7971 26.9639 15.993 28.4366 17.8426 30.2932C19.6922 32.1498 21.1594 34.354 22.1605 36.7795C22.7874 38.2988 23.2237 39.8862 23.4623 41.5055C23.6987 43.1094 22.3673 44.4307 20.752 44.4307H6.68245C5.0672 44.4307 3.75781 43.1164 3.75781 41.495V27.373Z" fill="#EAC74B"/>
</g>
<g filter="url(#filter3_ii_175_1103)">
<path d="M43.6107 27.373C43.6107 25.7516 42.2943 24.4152 40.6966 24.6524C39.0834 24.8919 37.5017 25.3299 35.9882 25.9592C33.5713 26.9639 31.3755 28.4366 29.5259 30.2932C27.6763 32.1498 26.2091 34.354 25.2081 36.7795C24.5812 38.2988 24.1448 39.8862 23.9062 41.5055C23.6699 43.1093 25.0012 44.4307 26.6165 44.4307H40.6861C42.3013 44.4307 43.6107 43.1164 43.6107 41.495V27.373Z" fill="#1FADB5"/>
</g>
<g filter="url(#filter4_ii_175_1103)">
<path d="M13.7329 23.7923C19.2333 23.7923 23.6923 19.3166 23.6923 13.7956C23.6923 8.27452 19.2333 3.79883 13.7329 3.79883C8.23243 3.79883 3.77344 8.27452 3.77344 13.7956C3.77344 19.3166 8.23243 23.7923 13.7329 23.7923Z" fill="#1FADB5"/>
</g>
<g filter="url(#filter5_ii_175_1103)">
<path d="M33.6509 23.7923C39.1513 23.7923 43.6103 19.3166 43.6103 13.7956C43.6103 8.27452 39.1513 3.79883 33.6509 3.79883C28.1504 3.79883 23.6914 8.27452 23.6914 13.7956C23.6914 19.3166 28.1504 23.7923 33.6509 23.7923Z" fill="#EAC74B"/>
</g>
<defs>
<filter id="filter0_ii_175_1103" x="54.3945" y="2.69727" width="109.805" height="42.9414" filterUnits="userSpaceOnUse" color-interpolation-filters="sRGB">
<feFlood flood-opacity="0" result="BackgroundImageFix"/>
<feBlend mode="normal" in="SourceGraphic" in2="BackgroundImageFix" result="shape"/>
<feColorMatrix in="SourceAlpha" type="matrix" values="0 0 0 0 0 0 0 0 0 0 0 0 0 0 0 0 0 0 127 0" result="hardAlpha"/>
<feOffset dy="0.5"/>
<feGaussianBlur stdDeviation="0.25"/>
<feComposite in2="hardAlpha" operator="arithmetic" k2="-1" k3="1"/>
<feColorMatrix type="matrix" values="0 0 0 0 1 0 0 0 0 1 0 0 0 0 1 0 0 0 0.25 0"/>
<feBlend mode="normal" in2="shape" result="effect1_innerShadow_175_1103"/>
<feColorMatrix in="SourceAlpha" type="matrix" values="0 0 0 0 0 0 0 0 0 0 0 0 0 0 0 0 0 0 127 0" result="hardAlpha"/>
<feOffset dy="-0.5"/>
<feGaussianBlur stdDeviation="0.25"/>
<feComposite in2="hardAlpha" operator="arithmetic" k2="-1" k3="1"/>
<feColorMatrix type="matrix" values="0 0 0 0 0 0 0 0 0 0 0 0 0 0 0 0 0 0 0.25 0"/>
<feBlend mode="normal" in2="effect1_innerShadow_175_1103" result="effect2_innerShadow_175_1103"/>
</filter>
<filter id="filter1_ii_175_1103" x="0" y="-0.222656" width="47.3555" height="48.709" filterUnits="userSpaceOnUse" color-interpolation-filters="sRGB">
<feFlood flood-opacity="0" result="BackgroundImageFix"/>
<feBlend mode="normal" in="SourceGraphic" in2="BackgroundImageFix" result="shape"/>
<feColorMatrix in="SourceAlpha" type="matrix" values="0 0 0 0 0 0 0 0 0 0 0 0 0 0 0 0 0 0 127 0" result="hardAlpha"/>
<feOffset dy="-0.5"/>
<feGaussianBlur stdDeviation="0.25"/>
<feComposite in2="hardAlpha" operator="arithmetic" k2="-1" k3="1"/>
<feColorMatrix type="matrix" values="0 0 0 0 0 0 0 0 0 0 0 0 0 0 0 0 0 0 0.2 0"/>
<feBlend mode="normal" in2="shape" result="effect1_innerShadow_175_1103"/>
<feColorMatrix in="SourceAlpha" type="matrix" values="0 0 0 0 0 0 0 0 0 0 0 0 0 0 0 0 0 0 127 0" result="hardAlpha"/>
<feOffset dy="0.5"/>
<feGaussianBlur stdDeviation="0.25"/>
<feComposite in2="hardAlpha" operator="arithmetic" k2="-1" k3="1"/>
<feColorMatrix type="matrix" values="0 0 0 0 1 0 0 0 0 1 0 0 0 0 1 0 0 0 0.25 0"/>
<feBlend mode="normal" in2="effect1_innerShadow_175_1103" result="effect2_innerShadow_175_1103"/>
</filter>
<filter id="filter2_ii_175_1103" x="3.75781" y="24.125" width="19.7305" height="20.8066" filterUnits="userSpaceOnUse" color-interpolation-filters="sRGB">
<feFlood flood-opacity="0" result="BackgroundImageFix"/>
<feBlend mode="normal" in="SourceGraphic" in2="BackgroundImageFix" result="shape"/>
<feColorMatrix in="SourceAlpha" type="matrix" values="0 0 0 0 0 0 0 0 0 0 0 0 0 0 0 0 0 0 127 0" result="hardAlpha"/>
<feOffset dy="0.5"/>
<feGaussianBlur stdDeviation="0.25"/>
<feComposite in2="hardAlpha" operator="arithmetic" k2="-1" k3="1"/>
<feColorMatrix type="matrix" values="0 0 0 0 1 0 0 0 0 1 0 0 0 0 1 0 0 0 0.2 0"/>
<feBlend mode="normal" in2="shape" result="effect1_innerShadow_175_1103"/>
<feColorMatrix in="SourceAlpha" type="matrix" values="0 0 0 0 0 0 0 0 0 0 0 0 0 0 0 0 0 0 127 0" result="hardAlpha"/>
<feOffset dy="-0.5"/>
<feGaussianBlur stdDeviation="0.25"/>
<feComposite in2="hardAlpha" operator="arithmetic" k2="-1" k3="1"/>
<feColorMatrix type="matrix" values="0 0 0 0 0 0 0 0 0 0 0 0 0 0 0 0 0 0 0.25 0"/>
<feBlend mode="normal" in2="effect1_innerShadow_175_1103" result="effect2_innerShadow_175_1103"/>
</filter>
<filter id="filter3_ii_175_1103" x="23.8789" y="24.125" width="19.7305" height="20.8066" filterUnits="userSpaceOnUse" color-interpolation-filters="sRGB">
<feFlood flood-opacity="0" result="BackgroundImageFix"/>
<feBlend mode="normal" in="SourceGraphic" in2="BackgroundImageFix" result="shape"/>
<feColorMatrix in="SourceAlpha" type="matrix" values="0 0 0 0 0 0 0 0 0 0 0 0 0 0 0 0 0 0 127 0" result="hardAlpha"/>
<feOffset dy="0.5"/>
<feGaussianBlur stdDeviation="0.25"/>
<feComposite in2="hardAlpha" operator="arithmetic" k2="-1" k3="1"/>
<feColorMatrix type="matrix" values="0 0 0 0 1 0 0 0 0 1 0 0 0 0 1 0 0 0 0.2 0"/>
<feBlend mode="normal" in2="shape" result="effect1_innerShadow_175_1103"/>
<feColorMatrix in="SourceAlpha" type="matrix" values="0 0 0 0 0 0 0 0 0 0 0 0 0 0 0 0 0 0 127 0" result="hardAlpha"/>
<feOffset dy="-0.5"/>
<feGaussianBlur stdDeviation="0.25"/>
<feComposite in2="hardAlpha" operator="arithmetic" k2="-1" k3="1"/>
<feColorMatrix type="matrix" values="0 0 0 0 0 0 0 0 0 0 0 0 0 0 0 0 0 0 0.25 0"/>
<feBlend mode="normal" in2="effect1_innerShadow_175_1103" result="effect2_innerShadow_175_1103"/>
</filter>
<filter id="filter4_ii_175_1103" x="3.77344" y="3.29883" width="19.918" height="20.9941" filterUnits="userSpaceOnUse" color-interpolation-filters="sRGB">
<feFlood flood-opacity="0" result="BackgroundImageFix"/>
<feBlend mode="normal" in="SourceGraphic" in2="BackgroundImageFix" result="shape"/>
<feColorMatrix in="SourceAlpha" type="matrix" values="0 0 0 0 0 0 0 0 0 0 0 0 0 0 0 0 0 0 127 0" result="hardAlpha"/>
<feOffset dy="0.5"/>
<feGaussianBlur stdDeviation="0.25"/>
<feComposite in2="hardAlpha" operator="arithmetic" k2="-1" k3="1"/>
<feColorMatrix type="matrix" values="0 0 0 0 1 0 0 0 0 1 0 0 0 0 1 0 0 0 0.2 0"/>
<feBlend mode="normal" in2="shape" result="effect1_innerShadow_175_1103"/>
<feColorMatrix in="SourceAlpha" type="matrix" values="0 0 0 0 0 0 0 0 0 0 0 0 0 0 0 0 0 0 127 0" result="hardAlpha"/>
<feOffset dy="-0.5"/>
<feGaussianBlur stdDeviation="0.25"/>
<feComposite in2="hardAlpha" operator="arithmetic" k2="-1" k3="1"/>
<feColorMatrix type="matrix" values="0 0 0 0 0 0 0 0 0 0 0 0 0 0 0 0 0 0 0.25 0"/>
<feBlend mode="normal" in2="effect1_innerShadow_175_1103" result="effect2_innerShadow_175_1103"/>
</filter>
<filter id="filter5_ii_175_1103" x="23.6914" y="3.29883" width="19.918" height="20.9941" filterUnits="userSpaceOnUse" color-interpolation-filters="sRGB">
<feFlood flood-opacity="0" result="BackgroundImageFix"/>
<feBlend mode="normal" in="SourceGraphic" in2="BackgroundImageFix" result="shape"/>
<feColorMatrix in="SourceAlpha" type="matrix" values="0 0 0 0 0 0 0 0 0 0 0 0 0 0 0 0 0 0 127 0" result="hardAlpha"/>
<feOffset dy="0.5"/>
<feGaussianBlur stdDeviation="0.25"/>
<feComposite in2="hardAlpha" operator="arithmetic" k2="-1" k3="1"/>
<feColorMatrix type="matrix" values="0 0 0 0 1 0 0 0 0 1 0 0 0 0 1 0 0 0 0.2 0"/>
<feBlend mode="normal" in2="shape" result="effect1_innerShadow_175_1103"/>
<feColorMatrix in="SourceAlpha" type="matrix" values="0 0 0 0 0 0 0 0 0 0 0 0 0 0 0 0 0 0 127 0" result="hardAlpha"/>
<feOffset dy="-0.5"/>
<feGaussianBlur stdDeviation="0.25"/>
<feComposite in2="hardAlpha" operator="arithmetic" k2="-1" k3="1"/>
<feColorMatrix type="matrix" values="0 0 0 0 0 0 0 0 0 0 0 0 0 0 0 0 0 0 0.25 0"/>
<feBlend mode="normal" in2="effect1_innerShadow_175_1103" result="effect2_innerShadow_175_1103"/>
</filter>
</defs>
</svg>
